<?xml version="1.0" encoding="utf-8"?>
<!-- Generator: Adobe Illustrator 24.3.0, SVG Export Plug-In . SVG Version: 6.00 Build 0)  -->
<svg version="1.1" id="Layer_1" xmlns="http://www.w3.org/2000/svg" xmlns:xlink="http://www.w3.org/1999/xlink" x="0px" y="0px"
	 viewBox="0 0 2000 1266.7" style="enable-background:new 0 0 2000 1266.7;" xml:space="preserve">
<style type="text/css">
	.st0{fill:#FF5F00;}
	.st1{fill:#FFFFFF;}
	.st2{fill:#002169;}
</style>

<g>
	<g>
		<g>
			<g>
				<g>
					<path class="st1" d="M513.9,647.5c0,17.1-2.7,32.9-8.2,47.4c-5.4,14.5-13.1,27.1-22.9,37.7c-9.8,10.6-21.5,18.9-34.9,24.8
						c-13.5,6-28.2,8.9-44.3,8.9c-16.1,0-30.9-3-44.6-8.9s-25.5-14.2-35.3-24.8s-17.5-23.2-22.9-37.7s-8.2-30.3-8.2-47.4V314.9
						H171.5v337.2c0,32.6,4.9,62.6,14.8,90.1c9.8,27.4,24.5,51.2,43.9,71.4s43.6,36,72.6,47.4s62.6,17.1,100.9,17.1
						c37.8,0,71.2-5.7,100.2-17.1c29-11.4,53.2-27.2,72.6-47.4s34-44,43.9-71.4c9.8-27.4,14.8-57.5,14.8-90.1V314.9H513.9V647.5z"/>
					<path class="st1" d="M1103.9,378.5c-19.4-20.2-43.6-36-72.6-47.4S968.7,314,930.4,314c-37.8,0-71.2,5.7-100.2,17.1
						s-53.2,27.2-72.6,47.4c-19.4,20.2-34,44-43.9,71.4c-9.8,27.4-14.8,57.5-14.8,90.1v337.8H820V544.6c0-17.1,2.7-32.9,8.2-47.4
						c5.4-14.5,13.1-27.1,22.9-37.7c9.8-10.6,21.5-18.9,34.9-24.8c13.5-6,28.2-8.9,44.3-8.9s30.9,3,44.6,8.9
						c13.7,5.9,25.5,14.2,35.3,24.8c9.8,10.6,17.5,23.2,22.9,37.7s8.2,30.3,8.2,47.4v333.1h121.1V540c0-32.6-4.9-62.6-14.8-90.1
						C1137.9,422.4,1123.3,398.6,1103.9,378.5z"/>
					<path class="st0" d="M1828.3,314.3H1447v112.6h121.9v220.7c0,17.1-2.7,32.9-8.2,47.4c-5.4,14.5-13.1,27.1-22.9,37.7
						c-9.8,10.6-21.5,18.9-34.9,24.8c-13.5,6-28.2,8.9-44.3,8.9c-16.1,0-30.9-3-44.6-8.9s-25.5-14.2-35.3-24.8s-17.5-23.2-22.9-37.7
						s-8.2-30.3-8.2-47.4V314.4h-121.1v337.8c0,32.6,4.9,62.6,14.8,90.1c9.8,27.4,24.5,51.2,43.9,71.4s43.6,36,72.6,47.4
						s62.6,17.1,100.9,17.1c37.8,0,71.2-5.7,100.2-17.1c29-11.4,53.2-27.2,72.6-47.4s34-44,43.9-71.4c9.8-27.4,14.8-57.5,14.8-90.1
						V426.9h138.3V314.3H1828.3z"/>
					<path class="st0" d="M1329.7,166.6L1329.7,166.6c-23.6-23.6-62-23.6-85.6,0l0,0c-23.6,23.6-23.6,62,0,85.6l0,0
						c23.6,23.6,62,23.6,85.6,0l0,0C1353.4,228.6,1353.4,190.3,1329.7,166.6z"/>
				</g>
			</g>
		</g>
	</g>
	<g>
		<path class="st1" d="M181.5,991.5v37.2h53v10h-53v48.8h-10v-106h65.6v10H181.5z"/>
		<path class="st1" d="M259.5,992.8c0-3.5,2.7-6.4,6.2-6.4s6.4,2.9,6.4,6.4s-2.9,6.4-6.4,6.4C262.2,999.1,259.5,996.2,259.5,992.8z
			 M260.7,1012.1h10v75.4h-10V1012.1z"/>
		<path class="st1" d="M307.3,979.6v107.9h-10V979.6H307.3z"/>
		<path class="st1" d="M332.7,992.8c0-3.5,2.7-6.4,6.2-6.4s6.4,2.9,6.4,6.4s-2.9,6.4-6.4,6.4C335.5,999.1,332.7,996.2,332.7,992.8z
			 M333.9,1012.1h10v75.4h-10V1012.1z"/>
		<path class="st1" d="M433.4,1012.1v75.4h-10v-9.7c-5,7.3-13.2,11.7-24.8,11.7c-22.9,0-33.3-16.4-33.3-39.8
			c0-23.3,10.4-39.5,33.3-39.5c12.1,0,20.3,4.4,25.3,12.3v-10.3L433.4,1012.1L433.4,1012.1z M423.4,1049.7
			c0-17.3-6.7-29.5-23.8-29.5c-17.3,0-23.9,12.3-23.9,29.5c0,17.4,6.7,29.8,23.9,29.8S423.4,1067.1,423.4,1049.7z"/>
		<path class="st1" d="M470,979.6v107.9h-10V979.6H470z"/>
		<path class="st1" d="M597.4,981.5v106h-9.5v-10.4c-5,7.9-13.2,12.4-25.3,12.4c-22.9,0-33.3-16.4-33.3-39.8
			c0-23.3,10.4-39.5,33.3-39.5c11.7,0,19.8,4.2,24.8,11.5v-40.1L597.4,981.5L597.4,981.5z M587.4,1049.7c0-17.3-6.7-29.5-23.8-29.5
			c-17.3,0-23.9,12.3-23.9,29.5c0,17.4,6.7,29.8,23.9,29.8C580.7,1079.5,587.4,1067.1,587.4,1049.7z"/>
		<path class="st1" d="M680.3,1054.7c-7,0-35.9,0-50.9,0c1.2,14.7,7.7,25.3,24.5,25.3c10.7,0,18.2-4.1,22.3-7.7v11.1
			c-5.8,3.6-11.5,6.2-21.7,6.2c-24.2,0-35.9-16.4-35.9-39.8c0-23.3,10.4-39.5,32.2-39.5C671.9,1010.2,683.2,1028,680.3,1054.7z
			 M670.3,1044.8c0-12.4-5.1-24.7-19.8-24.7c-14.4,0-20.1,9.5-21.2,24.7H670.3z"/>
		<path class="st1" d="M822.3,1029.5v48.9c-9.2,7.4-21.5,11.1-35.9,11.1c-32.9,0-50.3-24.8-50.3-55c0-30.3,17.4-55,50.3-55
			c12.6,0,22.3,2.7,31.8,9.2v12.9c-7.6-7-17-12.1-30.7-12.1c-27.4,0-40.9,20.1-40.9,45c0,24.7,13.5,45,40.9,45
			c10.3,0,18.3-2.3,24.8-6.5v-43.5H822.3z"/>
		<path class="st1" d="M888,1010.5v9.4c-1.8-0.3-3.8-0.6-5.9-0.6c-13,0-20.1,5.9-23.2,16v52.2h-10v-75.4h9.5v9.5
			c3.2-4.8,10.3-11.5,24.5-11.5C884.7,1010.2,886.7,1010.3,888,1010.5z"/>
		<path class="st1" d="M971.2,1012.1v75.4h-9.4v-9.5c-4.4,5.1-13.3,11.5-25.1,11.5c-18.6,0-29.5-11.5-29.5-32.1v-45.3h10v45.3
			c0,15.3,8,23,21,23c12.4,0,21-10,23.2-16v-52.2h9.8V1012.1z"/>
		<path class="st1" d="M1065.9,1049.7c0,23.5-10.6,39.8-33.3,39.8c-11.8,0-19.8-4.4-25-11.7v40h-9.8v-105.7h9.4v10.3
			c5.1-7.9,13.3-12.3,25.4-12.3C1055.3,1010.2,1065.9,1026.4,1065.9,1049.7z M1055.5,1049.7c0-17.3-6.8-29.5-23.9-29.5
			s-23.9,12.3-23.9,29.5c0,17.4,6.8,29.8,23.9,29.8C1048.7,1079.5,1055.5,1067.1,1055.5,1049.7z"/>
		<path class="st1" d="M1151.5,1049.7c0,23.5-11.5,39.8-34.4,39.8s-34.4-16.4-34.4-39.8c0-23.3,11.5-39.5,34.4-39.5
			C1140,1010.2,1151.5,1026.4,1151.5,1049.7z M1141,1049.7c0-17.3-6.8-29.5-23.9-29.5s-23.9,12.3-23.9,29.5
			c0,17.4,6.8,29.8,23.9,29.8S1141,1067.1,1141,1049.7z"/>
		<path class="st1" d="M1288.2,981.5v67.4c0,24.4-11.7,40.6-37.7,40.6c-25.9,0-37.5-16.2-37.5-40.6v-67.4h10v67.4
			c0,17.7,7.7,30.6,27.6,30.6c20,0,27.7-12.9,27.7-30.6v-67.4H1288.2z"/>
		<path class="st1" d="M1382,1042.1v45.4h-10v-45.4c0-15.3-8-22.9-21-22.9c-12.4,0-21.2,9.7-23.2,15.9v52.4h-10v-75.4h9.5v9.4
			c4.4-5.1,13.3-11.4,25-11.4C1371,1010.2,1382,1021.4,1382,1042.1z"/>
		<path class="st1" d="M1407.5,992.8c0-3.5,2.7-6.4,6.2-6.4s6.4,2.9,6.4,6.4s-2.9,6.4-6.4,6.4
			C1410.2,999.1,1407.5,996.2,1407.5,992.8z M1408.7,1012.1h10v75.4h-10V1012.1z"/>
		<path class="st1" d="M1505.3,1012.1l-29.5,75.4H1465l-29.5-75.4h10.6l24.4,63.1l24.2-63.1H1505.3z"/>
		<path class="st1" d="M1578.4,1054.7c-7,0-35.9,0-50.9,0c1.2,14.7,7.7,25.3,24.5,25.3c10.7,0,18.2-4.1,22.3-7.7v11.1
			c-5.8,3.6-11.5,6.2-21.7,6.2c-24.2,0-35.9-16.4-35.9-39.8c0-23.3,10.4-39.5,32.2-39.5C1569.9,1010.2,1581.3,1028,1578.4,1054.7z
			 M1568.4,1044.8c0-12.4-5.1-24.7-19.8-24.7c-14.4,0-20.1,9.5-21.2,24.7H1568.4z"/>
		<path class="st1" d="M1640,1010.5v9.4c-1.8-0.3-3.8-0.6-5.9-0.6c-13,0-20.1,5.9-23.2,16v52.2h-10v-75.4h9.5v9.5
			c3.2-4.8,10.3-11.5,24.5-11.5C1636.7,1010.2,1638.7,1010.3,1640,1010.5z"/>
		<path class="st1" d="M1707.7,1068.3c0,12.9-11.7,21.2-28.8,21.2c-9.4,0-18.5-2.4-25.1-6.4v-11.2c4.7,3.5,14.8,7.6,24.2,7.6
			c5,0,19.1-0.9,19.1-11.5c0-6.4-6.1-9.7-18.2-13.9c-13.3-4.5-25-8.5-24.7-23.9c0.5-14.1,14.1-20,26.2-20c7.4,0,16,2,22,4.4v11.1
			c-4.5-2.9-13.6-5.5-21.3-5.5c-2.9,0-16.4,0.2-16.4,10.3c0,7.1,5.6,10,17.7,14.1C1700.7,1050.7,1707.7,1055,1707.7,1068.3z"/>
		<path class="st1" d="M1791.9,1012.1v75.4h-10v-9.7c-5,7.3-13.2,11.7-24.8,11.7c-22.9,0-33.3-16.4-33.3-39.8
			c0-23.3,10.4-39.5,33.3-39.5c12.1,0,20.3,4.4,25.3,12.3v-10.3L1791.9,1012.1L1791.9,1012.1z M1781.9,1049.7
			c0-17.3-6.7-29.5-23.8-29.5c-17.3,0-23.9,12.3-23.9,29.5c0,17.4,6.7,29.8,23.9,29.8C1775.2,1079.5,1781.9,1067.1,1781.9,1049.7z"
			/>
		<path class="st1" d="M1828.5,979.6v107.9h-10V979.6H1828.5z"/>
	</g>
</g>
</svg>
